<?xml version="1.0" encoding="utf-8"?>
<!-- Generator: Adobe Illustrator 24.0.1, SVG Export Plug-In . SVG Version: 6.00 Build 0)  -->
<svg version="1.1" id="Layer_1" xmlns="http://www.w3.org/2000/svg" xmlns:xlink="http://www.w3.org/1999/xlink" x="0px" y="0px"
	 viewBox="0 0 48 48" style="enable-background:new 0 0 48 48;" xml:space="preserve">
<polygon style="fill:#FF9800;" points="25,22.5 29,18.5 25,14.5 25,10 20.5,10 16.5,6 12.5,10 8,10 8,14.5 4,18.5 8,22.5 8,27 
	12.5,27 16.5,31 20.5,27 25,27 "/>
<path style="fill:#FFEB3B;" d="M10,18.5c0,3.6,2.9,6.5,6.5,6.5s6.5-2.9,6.5-6.5S20.1,12,16.5,12S10,14.9,10,18.5"/>
<g>
	<path style="fill:#BBDEFB;" d="M29.5,17c-4.7,0-8.5,3.8-8.5,8.5s3.8,8.5,8.5,8.5s8.5-3.8,8.5-8.5S34.2,17,29.5,17z"/>
	<path style="fill:#BBDEFB;" d="M37,26.9c-3.9,0-7,3.1-7,7s3.1,7,7,7s7-3.1,7-7S40.9,26.9,37,26.9z M11,27c-3.9,0-7,3.1-7,7
		s3.1,7,7,7s7-3.1,7-7S14.9,27,11,27z"/>
	<path style="fill:#BBDEFB;" d="M17.5,20c-3.6,0-6.5,2.9-6.5,6.5s2.9,6.5,6.5,6.5s6.5-2.9,6.5-6.5S21.1,20,17.5,20z"/>
	<path style="fill:#BBDEFB;" d="M25,24.9c-3.9,0-7,3.1-7,7s3.1,7,7,7s7-3.1,7-7S28.9,24.9,25,24.9z"/>
	<path style="fill:#BBDEFB;" d="M7,37c0,2.2,1.8,4,4,4h25c2.2,0,4-1.8,4-4v-1c0-2.2-1.8-4-4-4H11c-2.2,0-4,1.8-4,4V37z"/>
</g>
</svg>
