<?xml version="1.0" encoding="utf-8"?>
<!-- Generator: Adobe Illustrator 24.0.1, SVG Export Plug-In . SVG Version: 6.00 Build 0)  -->
<svg version="1.1" id="Layer_1" xmlns="http://www.w3.org/2000/svg" xmlns:xlink="http://www.w3.org/1999/xlink" x="0px" y="0px"
	 viewBox="0 0 48 48" style="enable-background:new 0 0 48 48;" xml:space="preserve">
<g>
	<path style="fill:#BBDEFB;" d="M38,15.5c0,4.7-3.8,8.5-8.5,8.5S21,20.2,21,15.5S24.8,7,29.5,7S38,10.8,38,15.5z"/>
	<path style="fill:#BBDEFB;" d="M44,23.9c0,3.9-3.1,7-7,7s-7-3.1-7-7s3.1-7,7-7S44,20,44,23.9z M18,24c0,3.9-3.1,7-7,7s-7-3.1-7-7
		s3.1-7,7-7S18,20.1,18,24z"/>
	<path style="fill:#BBDEFB;" d="M24,16.5c0,3.6-2.9,6.5-6.5,6.5S11,20.1,11,16.5s2.9-6.5,6.5-6.5S24,12.9,24,16.5z"/>
	<path style="fill:#BBDEFB;" d="M32,21.9c0,3.9-3.1,7-7,7s-7-3.1-7-7s3.1-7,7-7S32,18,32,21.9z"/>
	<path style="fill:#BBDEFB;" d="M7,27c0,2.2,1.8,4,4,4h25c2.2,0,4-1.8,4-4v-1c0-2.2-1.8-4-4-4H11c-2.2,0-4,1.8-4,4V27z"/>
</g>
<path style="fill:none;stroke:#2196F3;stroke-width:2;stroke-linecap:round;stroke-linejoin:round;stroke-miterlimit:10;" d="
	M27.4,36.7c0.7,2,2.5,3.3,4.6,3.3c2.8-0.1,5-2.2,5-5s-2.2-5-5-5H12"/>
<path style="fill:none;stroke:#2196F3;stroke-width:2;stroke-linecap:round;stroke-linejoin:round;stroke-miterlimit:10;" d="
	M21.3,20.6c0.6-1.5,2-2.6,3.7-2.6c2.2,0,4,1.8,4,4s-1.8,4-4,4H14"/>
<path style="fill:none;stroke:#2196F3;stroke-width:2;stroke-linecap:round;stroke-linejoin:round;stroke-miterlimit:10;" d="
	M15.4,38.4c0.5,1,1.5,1.6,2.6,1.6c1.6,0,3-1.4,3-3s-1.4-3-3-3h-8"/>
</svg>
