<?xml version="1.0" encoding="utf-8"?>
<!-- Generator: Adobe Illustrator 24.0.1, SVG Export Plug-In . SVG Version: 6.00 Build 0)  -->
<svg version="1.1" id="Layer_1" xmlns="http://www.w3.org/2000/svg" xmlns:xlink="http://www.w3.org/1999/xlink" x="0px" y="0px"
	 viewBox="0 0 48 48" style="enable-background:new 0 0 48 48;" xml:space="preserve">
<g>
	<path style="fill:#BBDEFB;" d="M29.5,5C24.8,5,21,8.8,21,13.5s3.8,8.5,8.5,8.5s8.5-3.8,8.5-8.5S34.2,5,29.5,5z"/>
	<path style="fill:#BBDEFB;" d="M37,14.9c-3.9,0-7,3.1-7,7s3.1,7,7,7s7-3.1,7-7S40.9,14.9,37,14.9z M11,15c-3.9,0-7,3.1-7,7
		s3.1,7,7,7s7-3.1,7-7S14.9,15,11,15z"/>
	<path style="fill:#BBDEFB;" d="M17.5,8c-3.6,0-6.5,2.9-6.5,6.5s2.9,6.5,6.5,6.5s6.5-2.9,6.5-6.5S21.1,8,17.5,8z"/>
	<path style="fill:#BBDEFB;" d="M25,12.9c-3.9,0-7,3.1-7,7s3.1,7,7,7s7-3.1,7-7S28.9,12.9,25,12.9z"/>
	<path style="fill:#BBDEFB;" d="M7,25c0,2.2,1.8,4,4,4h25c2.2,0,4-1.8,4-4v-1c0-2.2-1.8-4-4-4H11c-2.2,0-4,1.8-4,4V25z"/>
</g>
<path style="fill:#2196F3;" d="M35,37.2c-1.1,1.1-3,1.1-4.1,0c-1.1-1.1-1.1-3,0-4.1C32,31.9,37,31,37,31S36.1,36,35,37.2z"/>
<path style="fill:#2196F3;" d="M24,41.2c-1.1,1.1-3,1.1-4.1,0c-1.1-1.1-1.1-3,0-4.1c1.1-1.1,6.2-2,6.2-2S25.1,40,24,41.2z"/>
<path style="fill:#2196F3;" d="M13.9,37.2c-1.1,1.1-3,1.1-4.1,0c-1.1-1.1-1.1-3,0-4.1c1.1-1.1,6.2-2,6.2-2S15.1,36,13.9,37.2z"/>
</svg>
