<svg width="48" height="48" viewBox="0 0 48 48" fill="none" xmlns="http://www.w3.org/2000/svg">
<path d="M10.1 29.7H12.1V38.7H10.1V29.7Z" fill="#2196F3"/>
<path d="M15.5 35.6L14.5 37.3L6.7 32.7L7.7 31L15.5 35.6Z" fill="#2196F3"/>
<path d="M14.6 31.2L15.6 32.9L7.8 37.3L6.8 35.6L14.6 31.2Z" fill="#2196F3"/>
<path d="M33.6 29.9H35.6V38.9H33.6V29.9Z" fill="#2196F3"/>
<path d="M39 35.8L38 37.5L30.2 33L31.2 31.3L39 35.8Z" fill="#2196F3"/>
<path d="M38.1 31.3L39.1 33L31.3 37.4L30.3 35.7L38.1 31.3Z" fill="#2196F3"/>
<path d="M29.5 5C24.8 5 21 8.8 21 13.5C21 18.2 24.8 22 29.5 22C34.2 22 38 18.2 38 13.5C38 8.8 34.2 5 29.5 5Z" fill="#BBDEFB"/>
<path d="M37 14.9C33.1 14.9 30 18 30 21.9C30 25.8 33.1 28.9 37 28.9C40.9 28.9 44 25.8 44 21.9C44 18 40.9 14.9 37 14.9ZM11 15C7.1 15 4 18.1 4 22C4 25.9 7.1 29 11 29C14.9 29 18 25.9 18 22C18 18.1 14.9 15 11 15Z" fill="#BBDEFB"/>
<path d="M17.5 8C13.9 8 11 10.9 11 14.5C11 18.1 13.9 21 17.5 21C21.1 21 24 18.1 24 14.5C24 10.9 21.1 8 17.5 8Z" fill="#BBDEFB"/>
<path d="M25 12.9C21.1 12.9 18 16 18 19.9C18 23.8 21.1 26.9 25 26.9C28.9 26.9 32 23.8 32 19.9C32 16 28.9 12.9 25 12.9Z" fill="#BBDEFB"/>
<path d="M7 25C7 27.2 8.8 29 11 29H36C38.2 29 40 27.2 40 25V24C40 21.8 38.2 20 36 20H11C8.8 20 7 21.8 7 24V25Z" fill="#BBDEFB"/>
<path d="M22.6 32.9H24.6V41.9H22.6V32.9Z" fill="#2196F3"/>
<path d="M28 38.8L27 40.5L19.2 36L20.2 34.3L28 38.8Z" fill="#2196F3"/>
<path d="M27.1 34.3L28.1 36L20.3 40.4L19.3 38.7L27.1 34.3Z" fill="#2196F3"/>
</svg>
