<svg width="48" height="48" viewBox="0 0 48 48" fill="none" xmlns="http://www.w3.org/2000/svg">
<path d="M29.5 5C24.8 5 21 8.8 21 13.5C21 18.2 24.8 22 29.5 22C34.2 22 38 18.2 38 13.5C38 8.8 34.2 5 29.5 5Z" fill="#BBDEFB"/>
<path d="M37 14.9C33.1 14.9 30 18 30 21.9C30 25.8 33.1 28.9 37 28.9C40.9 28.9 44 25.8 44 21.9C44 18 40.9 14.9 37 14.9ZM11 15C7.1 15 4 18.1 4 22C4 25.9 7.1 29 11 29C14.9 29 18 25.9 18 22C18 18.1 14.9 15 11 15Z" fill="#BBDEFB"/>
<path d="M17.5 8C13.9 8 11 10.9 11 14.5C11 18.1 13.9 21 17.5 21C21.1 21 24 18.1 24 14.5C24 10.9 21.1 8 17.5 8Z" fill="#BBDEFB"/>
<path d="M25 12.9C21.1 12.9 18 16 18 19.9C18 23.8 21.1 26.9 25 26.9C28.9 26.9 32 23.8 32 19.9C32 16 28.9 12.9 25 12.9Z" fill="#BBDEFB"/>
<path d="M7 25C7 27.2 8.8 29 11 29H36C38.2 29 40 27.2 40 25V24C40 21.8 38.2 20 36 20H11C8.8 20 7 21.8 7 24V25Z" fill="#BBDEFB"/>
<path d="M39.6082 27.7123L33.7644 26.3524L35.8043 17.5866L26.0399 28.6617L31.8838 30.0216L29.8438 38.7874L39.6082 27.7123Z" fill="#FFE400"/>
<path d="M24.6082 22.7123L18.7644 21.3524L20.8043 12.5866L11.0399 23.6617L16.8838 25.0216L14.8438 33.7874L24.6082 22.7123Z" fill="#FFE400"/>
</svg>
